<?xml version="1.0" encoding="UTF-8" standalone="no"?>
<!-- Created with Inkscape (http://www.inkscape.org/) -->

<svg
   width="299.01001mm"
   height="84.379997mm"
   viewBox="0 0 299.01001 84.379997"
   version="1.1"
   id="svg1"
   xml:space="preserve"
   xmlns="http://www.w3.org/2000/svg"
   xmlns:svg="http://www.w3.org/2000/svg"><defs
     id="defs1" /><g
     id="layer1"><g
       id="g34-4-5-3"
       style="stroke:#000000;stroke-width:3.26544;stroke-dasharray:none;stroke-opacity:1"
       transform="matrix(0.91822888,0,0,0.91822888,-4.9227014,280.53265)"><path
         style="fill:none;stroke:#000000;stroke-width:3.26544;stroke-linecap:round;stroke-linejoin:round;stroke-miterlimit:4;stroke-dasharray:none;stroke-opacity:1"
         d="M 14.132639,-228.37012 H 26.157083"
         id="path1-20-8-9-9" /><path
         style="fill:none;stroke:#000000;stroke-width:3.26544;stroke-linecap:round;stroke-linejoin:round;stroke-miterlimit:4;stroke-dasharray:none;stroke-opacity:1"
         d="m 26.157083,-228.3857 0.466667,-0.0156 0.466666,-0.0623 0.466667,-0.0935 0.451111,-0.12464 0.451111,-0.1558 0.42,-0.20254 0.42,-0.2337 0.388889,-0.26486 0.373334,-0.28044 0.342222,-0.32717 0.326666,-0.34276 0.28,-0.37392 0.264445,-0.3895 0.233333,-0.42066 0.202222,-0.42066 0.155556,-0.45182 0.124444,-0.45182 0.09333,-0.4674 0.06222,-0.4674 0.01556,-0.4674 -0.01555,-0.4674 -0.06222,-0.4674 -0.09333,-0.4674 -0.124444,-0.45182 -0.155556,-0.45182 -0.202222,-0.42066 -0.233333,-0.42066 -0.264445,-0.3895 -0.28,-0.37392 -0.326666,-0.34276 -0.342222,-0.32718 -0.373334,-0.28044 -0.388889,-0.26486 -0.42,-0.23369 -0.42,-0.20254 -0.451111,-0.1558 -0.451111,-0.12464 -0.466667,-0.0935 -0.466666,-0.0623 -0.466667,-0.0156"
         id="path2-8-7-1-3" /><path
         style="fill:none;stroke:#000000;stroke-width:3.26544;stroke-linecap:round;stroke-linejoin:round;stroke-miterlimit:4;stroke-dasharray:none;stroke-opacity:1"
         d="M 26.157083,-240.42902 H 8.1126389"
         id="path3-1-3-3-6" /><path
         style="fill:none;stroke:#000000;stroke-width:3.26544;stroke-linecap:round;stroke-linejoin:round;stroke-miterlimit:4;stroke-dasharray:none;stroke-opacity:1"
         d="m 61.48375,-240.42902 v 6.02945"
         id="path4-4-9-5-2" /><path
         style="fill:none;stroke:#000000;stroke-width:3.26544;stroke-linecap:round;stroke-linejoin:round;stroke-miterlimit:4;stroke-dasharray:none;stroke-opacity:1"
         d="m 61.48375,-234.39957 0.01555,0.43624 0.04667,0.42066 0.07778,0.42066 0.10889,0.42066 0.124444,0.40508 0.171111,0.3895 0.186666,0.3895 0.217779,0.37392 0.248888,0.34276 0.264446,0.34276 0.295555,0.3116 0.311111,0.29601 0.342222,0.26486 0.342223,0.24928 0.373332,0.21812 0.38889,0.18696 0.388887,0.17138 0.404445,0.12464 0.42,0.10906 0.420002,0.0779 0.419999,0.0467 0.435555,0.0156"
         id="path5-19-8-9-5" /><path
         style="fill:none;stroke:#000000;stroke-width:3.26544;stroke-linecap:round;stroke-linejoin:round;stroke-miterlimit:4;stroke-dasharray:none;stroke-opacity:1"
         d="m 85.53264,-216.32679 v -6.01387"
         id="path6-00-8-9-8" /><path
         style="fill:none;stroke:#000000;stroke-width:3.26544;stroke-linecap:round;stroke-linejoin:round;stroke-miterlimit:4;stroke-dasharray:none;stroke-opacity:1"
         d="m 85.53264,-222.34066 -0.01556,-0.43624 -0.04666,-0.42066 -0.07778,-0.42066 -0.108889,-0.42066 -0.124444,-0.40508 -0.171112,-0.3895 -0.186666,-0.3895 -0.217778,-0.37392 -0.248889,-0.34276 -0.264443,-0.34276 -0.295555,-0.3116 -0.311113,-0.29602 -0.342223,-0.26486 -0.34222,-0.24928 -0.373335,-0.21812 -0.388887,-0.18696 -0.38889,-0.17138 -0.404445,-0.12464 -0.419999,-0.10906 -0.42,-0.0779 -0.42,-0.0467 -0.435557,-0.0156"
         id="path7-18-4-9-4" /><path
         style="fill:none;stroke:#000000;stroke-width:3.26544;stroke-linecap:round;stroke-linejoin:round;stroke-miterlimit:4;stroke-dasharray:none;stroke-opacity:1"
         d="M 274.92153,-240.42902 H 262.89708"
         id="path8-24-4-5-0" /><path
         style="fill:none;stroke:#000000;stroke-width:3.26544;stroke-linecap:round;stroke-linejoin:round;stroke-miterlimit:4;stroke-dasharray:none;stroke-opacity:1"
         d="m 262.89708,-240.41344 -0.65333,0.0156 -0.65334,0.0623 -0.63777,0.0779 -0.63778,0.12464 -0.63778,0.1558 -0.62222,0.18695 -0.60667,0.2337 -0.60667,0.24928 -0.57555,0.29602 -0.57556,0.32718 -0.54444,0.34276 -0.52889,0.3895 -0.49778,0.40508 -0.49778,0.43624 -0.45111,0.45182 -0.43555,0.49856 -0.40445,0.49856 -0.38888,0.52972 -0.34223,0.5453 -0.32666,0.57646 -0.29556,0.57646 -0.24889,0.60762 -0.23333,0.60762 -0.18667,0.6232 -0.15555,0.63878 -0.12445,0.63878 -0.0778,0.63877 -0.0622,0.65436 -0.0156,0.65436 0.0156,0.65436 0.0622,0.65436 0.0778,0.63878 0.12445,0.63878 0.15555,0.63878 0.18667,0.6232 0.23333,0.60762 0.24889,0.60762 0.29556,0.57646 0.32666,0.57646 0.34223,0.5453 0.38888,0.52972 0.40445,0.49855 0.43555,0.49856 0.45111,0.45182 0.49778,0.43624 0.49778,0.40508 0.52889,0.3895 0.54444,0.34276 0.57556,0.32718 0.57555,0.29602 0.60667,0.24928 0.60667,0.2337 0.62222,0.18696 0.63778,0.1558 0.63778,0.12464 0.63777,0.0779 0.65334,0.0623 0.65333,0.0156"
         id="path9-5-5-6-1" /><path
         style="fill:none;stroke:#000000;stroke-width:3.26544;stroke-linecap:round;stroke-linejoin:round;stroke-miterlimit:4;stroke-dasharray:none;stroke-opacity:1"
         d="m 262.89708,-216.32679 h 12.02445"
         id="path10-77-8-6-6" /><path
         style="fill:none;stroke:#000000;stroke-width:3.26544;stroke-linecap:round;stroke-linejoin:round;stroke-miterlimit:4;stroke-dasharray:none;stroke-opacity:1"
         d="M 67.488194,-228.37012 H 79.528193"
         id="path11-9-7-9-0" /><path
         style="fill:none;stroke:#000000;stroke-width:3.26544;stroke-linecap:round;stroke-linejoin:round;stroke-miterlimit:4;stroke-dasharray:none;stroke-opacity:1"
         d="m 215.53041,-234.39957 -0.0155,-0.43624 -0.0467,-0.42066 -0.0778,-0.42066 -0.10888,-0.42066 -0.12445,-0.40508 -0.17111,-0.3895 -0.18667,-0.3895 -0.21778,-0.37392 -0.24888,-0.34276 -0.26445,-0.34276 -0.29555,-0.3116 -0.31111,-0.29602 -0.34223,-0.26486 -0.34222,-0.24928 -0.37333,-0.21812 -0.38889,-0.18695 -0.38889,-0.17138 -0.40444,-0.12464 -0.42001,-0.10906 -0.42,-0.0779 -0.42,-0.0467 -0.43555,-0.0156"
         id="path12-7-4-0-6" /><path
         style="fill:none;stroke:#000000;stroke-width:3.26544;stroke-linecap:round;stroke-linejoin:round;stroke-miterlimit:4;stroke-dasharray:none;stroke-opacity:1"
         d="m 215.54597,-234.39957 v 12.05891"
         id="path13-4-9-3-5" /><path
         style="fill:none;stroke:#000000;stroke-width:3.26544;stroke-linecap:round;stroke-linejoin:round;stroke-miterlimit:4;stroke-dasharray:none;stroke-opacity:1"
         d="m 215.56152,-222.34066 0.0156,0.43624 0.0467,0.42066 0.0778,0.42066 0.10889,0.42065 0.12445,0.40508 0.17111,0.3895 0.18667,0.3895 0.21777,0.37392 0.24889,0.34276 0.26445,0.34276 0.29555,0.3116 0.31111,0.29602 0.34223,0.26486 0.34222,0.24928 0.37333,0.21812 0.38889,0.18696 0.38889,0.17138 0.40444,0.12464 0.42,0.10906 0.42,0.0779 0.42,0.0467 0.43556,0.0156"
         id="path14-4-1-1-7" /><path
         style="fill:none;stroke:#000000;stroke-width:3.26544;stroke-linecap:round;stroke-linejoin:round;stroke-miterlimit:4;stroke-dasharray:none;stroke-opacity:1"
         d="m 126.86375,-222.34066 v 6.01387"
         id="path15-78-1-8-7" /><path
         style="fill:none;stroke:#000000;stroke-width:3.26544;stroke-linecap:round;stroke-linejoin:round;stroke-miterlimit:4;stroke-dasharray:none;stroke-opacity:1"
         d="m 114.85486,-234.39957 0.0155,0.43624 0.0467,0.42066 0.0778,0.42066 0.10889,0.42066 0.12444,0.40508 0.17111,0.3895 0.18667,0.3895 0.21778,0.37392 0.24889,0.34276 0.26444,0.34276 0.29555,0.3116 0.31112,0.29601 0.34222,0.26486 0.34222,0.24928 0.37334,0.21812 0.38888,0.18696 0.38889,0.17138 0.40445,0.12464 0.42,0.10906 0.42,0.0779 0.42,0.0467 0.43555,0.0156"
         id="path16-89-9-2-6" /><path
         style="fill:none;stroke:#000000;stroke-width:3.26544;stroke-linecap:round;stroke-linejoin:round;stroke-miterlimit:4;stroke-dasharray:none;stroke-opacity:1"
         d="m 126.86375,-222.34066 -0.0156,-0.43624 -0.0467,-0.42066 -0.0778,-0.42066 -0.10889,-0.42066 -0.12445,-0.40508 -0.17111,-0.3895 -0.18667,-0.3895 -0.21777,-0.37392 -0.24889,-0.34276 -0.26445,-0.34276 -0.29555,-0.3116 -0.31111,-0.29602 -0.34222,-0.26486 -0.34223,-0.24928 -0.37333,-0.21812 -0.38889,-0.18696 -0.38889,-0.17138 -0.40444,-0.12464 -0.42,-0.10906 -0.42,-0.0779 -0.42,-0.0467 -0.43556,-0.0156"
         id="path17-99-8-1-7" /><path
         style="fill:none;stroke:#000000;stroke-width:3.26544;stroke-linecap:round;stroke-linejoin:round;stroke-miterlimit:4;stroke-dasharray:none;stroke-opacity:1"
         d="m 114.8393,-234.39957 v -6.02945"
         id="path18-6-5-6-0" /><path
         style="fill:none;stroke:#000000;stroke-width:3.26544;stroke-linecap:round;stroke-linejoin:round;stroke-miterlimit:4;stroke-dasharray:none;stroke-opacity:1"
         d="m 85.53264,-234.39957 v -6.02945"
         id="path19-3-7-3-4" /><path
         style="fill:none;stroke:#000000;stroke-width:3.26544;stroke-linecap:round;stroke-linejoin:round;stroke-miterlimit:4;stroke-dasharray:none;stroke-opacity:1"
         d="m 61.48375,-222.34066 v 6.01387"
         id="path20-4-9-0-2" /><path
         style="fill:none;stroke:#000000;stroke-width:3.26544;stroke-linecap:round;stroke-linejoin:round;stroke-miterlimit:4;stroke-dasharray:none;stroke-opacity:1"
         d="m 14.132639,-228.35454 -0.435556,0.0156 -0.42,0.0467 -0.42,0.0779 -0.42,0.10906 -0.404444,0.12464 -0.388889,0.17138 -0.388889,0.18696 -0.373333,0.21812 -0.342222,0.24928 -0.342223,0.26486 -0.3111108,0.29602 -0.2955556,0.3116 -0.2644444,0.34276 -0.2488889,0.34276 -0.2177777,0.37392 -0.1866667,0.3895 -0.1711111,0.3895 -0.1244445,0.40508 -0.1088889,0.42066 -0.077778,0.42066 -0.046667,0.42066 -0.015556,0.43624"
         id="path21-6-5-5-3" /><path
         style="fill:none;stroke:#000000;stroke-width:3.26544;stroke-linecap:round;stroke-linejoin:round;stroke-miterlimit:4;stroke-dasharray:none;stroke-opacity:1"
         d="m 8.1126389,-222.34066 v 6.01387"
         id="path22-20-6-5-3" /><path
         style="fill:none;stroke:#000000;stroke-width:3.26544;stroke-linecap:round;stroke-linejoin:round;stroke-miterlimit:4;stroke-dasharray:none;stroke-opacity:1"
         d="m 156.17041,-216.32679 h 18.04445"
         id="path23-87-1-7-5" /><path
         style="fill:none;stroke:#000000;stroke-width:3.26544;stroke-linecap:round;stroke-linejoin:round;stroke-miterlimit:4;stroke-dasharray:none;stroke-opacity:1"
         d="m 174.21486,-216.32679 0.46666,-0.0156 0.46667,-0.0623 0.46667,-0.0935 0.45111,-0.12464 0.45111,-0.1558 0.42,-0.20254 0.42,-0.2337 0.38889,-0.26486 0.37333,-0.28044 0.34222,-0.32718 0.32667,-0.34276 0.28,-0.37392 0.26445,-0.3895 0.23333,-0.42066 0.20222,-0.42066 0.15556,-0.45182 0.12444,-0.45181 0.0933,-0.4674 0.0622,-0.4674 0.0156,-0.4674 -0.0156,-0.4674 -0.0622,-0.4674 -0.0933,-0.4674 -0.12444,-0.45182 -0.15556,-0.45182 -0.20222,-0.42066 -0.23333,-0.42066 -0.26445,-0.3895 -0.28,-0.37392 -0.32667,-0.34276 -0.34222,-0.32718 -0.37333,-0.28044 -0.38889,-0.26486 -0.42,-0.2337 -0.42,-0.20254 -0.45111,-0.1558 -0.45111,-0.12464 -0.46667,-0.0935 -0.46667,-0.0623 -0.46666,-0.0156"
         id="path24-8-7-1-1" /><path
         style="fill:none;stroke:#000000;stroke-width:3.26544;stroke-linecap:round;stroke-linejoin:round;stroke-miterlimit:4;stroke-dasharray:none;stroke-opacity:1"
         d="M 174.21486,-228.37012 H 162.19041"
         id="path25-7-8-7-1" /><path
         style="fill:none;stroke:#000000;stroke-width:3.26544;stroke-linecap:round;stroke-linejoin:round;stroke-miterlimit:4;stroke-dasharray:none;stroke-opacity:1"
         d="m 162.19041,-240.41344 -0.46666,0.0156 -0.46667,0.0623 -0.46667,0.0935 -0.45111,0.12464 -0.45111,0.1558 -0.42,0.20253 -0.42,0.2337 -0.38889,0.26486 -0.37333,0.28044 -0.34222,0.32718 -0.32667,0.34276 -0.28,0.37392 -0.26444,0.3895 -0.23334,0.42066 -0.20222,0.42066 -0.15555,0.45182 -0.12445,0.45182 -0.0933,0.4674 -0.0622,0.4674 -0.0155,0.4674 0.0155,0.4674 0.0622,0.4674 0.0933,0.4674 0.12445,0.45182 0.15555,0.45182 0.20222,0.42066 0.23334,0.42066 0.26444,0.3895 0.28,0.37392 0.32667,0.34276 0.34222,0.32717 0.37333,0.28044 0.38889,0.26486 0.42,0.2337 0.42,0.20254 0.45111,0.1558 0.45111,0.12464 0.46667,0.0935 0.46667,0.0623 0.46666,0.0156"
         id="path26-72-5-6-0" /><path
         style="fill:none;stroke:#000000;stroke-width:3.26544;stroke-linecap:round;stroke-linejoin:round;stroke-miterlimit:4;stroke-dasharray:none;stroke-opacity:1"
         d="m 162.19041,-240.42902 h 18.04445"
         id="path27-5-6-8-2" /><path
         style="fill:none;stroke:#000000;stroke-width:3.26544;stroke-linecap:round;stroke-linejoin:round;stroke-miterlimit:4;stroke-dasharray:none;stroke-opacity:1"
         d="m 304.22818,-216.32679 h 18.04445"
         id="path28-5-9-9-9" /><path
         style="fill:none;stroke:#000000;stroke-width:3.26544;stroke-linecap:round;stroke-linejoin:round;stroke-miterlimit:4;stroke-dasharray:none;stroke-opacity:1"
         d="m 322.27263,-216.32679 0.46667,-0.0156 0.46667,-0.0623 0.46668,-0.0935 0.45108,-0.12464 0.45112,-0.1558 0.42,-0.20254 0.42,-0.2337 0.38891,-0.26486 0.37333,-0.28044 0.34221,-0.32718 0.32668,-0.34276 0.27998,-0.37392 0.26445,-0.3895 0.23334,-0.42066 0.20222,-0.42066 0.15555,-0.45182 0.12446,-0.45181 0.0933,-0.4674 0.0622,-0.4674 0.0155,-0.4674 -0.0155,-0.4674 -0.0622,-0.4674 -0.0933,-0.4674 -0.12446,-0.45182 -0.15555,-0.45182 -0.20222,-0.42066 -0.23334,-0.42066 -0.26445,-0.3895 -0.27998,-0.37392 -0.32668,-0.34276 -0.34221,-0.32718 -0.37333,-0.28044 -0.38891,-0.26486 -0.42,-0.2337 -0.42,-0.20254 -0.45112,-0.1558 -0.45108,-0.12464 -0.46668,-0.0935 -0.46667,-0.0623 -0.46667,-0.0156"
         id="path29-3-0-9-0" /><path
         style="fill:none;stroke:#000000;stroke-width:3.26544;stroke-linecap:round;stroke-linejoin:round;stroke-miterlimit:4;stroke-dasharray:none;stroke-opacity:1"
         d="m 322.27263,-228.37012 h -12.04"
         id="path30-18-2-0-6" /><path
         style="fill:none;stroke:#000000;stroke-width:3.26544;stroke-linecap:round;stroke-linejoin:round;stroke-miterlimit:4;stroke-dasharray:none;stroke-opacity:1"
         d="m 310.23263,-240.41344 -0.46667,0.0156 -0.46667,0.0623 -0.46665,0.0935 -0.45111,0.12464 -0.45112,0.1558 -0.42,0.20253 -0.41999,0.2337 -0.38889,0.26486 -0.37333,0.28044 -0.34224,0.32718 -0.32665,0.34276 -0.28001,0.37392 -0.26445,0.3895 -0.23334,0.42066 -0.20222,0.42066 -0.15554,0.45182 -0.12444,0.45182 -0.0933,0.4674 -0.0622,0.4674 -0.0156,0.4674 0.0156,0.4674 0.0622,0.4674 0.0933,0.4674 0.12444,0.45182 0.15554,0.45182 0.20222,0.42066 0.23334,0.42066 0.26445,0.3895 0.28001,0.37392 0.32665,0.34276 0.34224,0.32717 0.37333,0.28044 0.38889,0.26486 0.41999,0.2337 0.42,0.20254 0.45112,0.1558 0.45111,0.12464 0.46665,0.0935 0.46667,0.0623 0.46667,0.0156"
         id="path31-76-1-9-2" /><path
         style="fill:none;stroke:#000000;stroke-width:3.26544;stroke-linecap:round;stroke-linejoin:round;stroke-miterlimit:4;stroke-dasharray:none;stroke-opacity:1"
         d="m 310.23263,-240.42902 h 18.04445"
         id="path32-70-8-6-1" /></g><g
       id="g36"
       transform="matrix(0.93028778,0,0,0.93028778,-319.59795,26.411886)"
       style="stroke:#000000;stroke-width:6.44962;stroke-dasharray:none;stroke-opacity:1"><path
         style="fill:none;stroke:#000000;stroke-width:6.44962;stroke-linecap:round;stroke-linejoin:round;stroke-miterlimit:4;stroke-dasharray:none;stroke-opacity:1"
         d="M 382.61208,22.517005 V -12.288678"
         id="path1-2" /><path
         style="fill:none;stroke:#000000;stroke-width:6.44962;stroke-linecap:round;stroke-linejoin:round;stroke-miterlimit:4;stroke-dasharray:none;stroke-opacity:1"
         d="m 405.75875,-12.288678 -0.0156,-0.65436 -0.0622,-0.638779 -0.0933,-0.65436 -0.12444,-0.638779 -0.15556,-0.623199 -0.20222,-0.6232 -0.23334,-0.607619 -0.26444,-0.592039 -0.29556,-0.57646 -0.32666,-0.560879 -0.35778,-0.5453 -0.38889,-0.514139 -0.42,-0.498559 -0.45111,-0.4674 -0.46667,-0.45182 -0.49777,-0.420659 -0.51334,-0.3895 -0.54444,-0.358339 -0.56,-0.32718 -0.57556,-0.29602 -0.59111,-0.264859 -0.60667,-0.2337 -0.62222,-0.20254 -0.62222,-0.1558 -0.63778,-0.12464 -0.65333,-0.09348 -0.63778,-0.06232 -0.65333,-0.01558 -0.65334,0.01558 -0.63777,0.06232 -0.65334,0.09348 -0.63777,0.12464 -0.62223,0.1558 -0.62222,0.20254 -0.60667,0.2337 -0.59111,0.264859 -0.57555,0.29602 -0.56,0.32718 -0.54445,0.358339 -0.51333,0.3895 -0.49778,0.420659 -0.46667,0.45182 -0.45111,0.4674 -0.42,0.498559 -0.38888,0.514139 -0.35778,0.5453 -0.32667,0.560879 -0.29556,0.57646 -0.26444,0.592039 -0.23333,0.607619 -0.20223,0.6232 -0.15555,0.623199 -0.12445,0.638779 -0.0933,0.65436 -0.0622,0.638779 -0.0156,0.65436"
         id="path2-7" /><path
         style="fill:none;stroke:#000000;stroke-width:6.44962;stroke-linecap:round;stroke-linejoin:round;stroke-miterlimit:4;stroke-dasharray:none;stroke-opacity:1"
         d="M 405.77431,-12.288678 V 10.909917"
         id="path3-2" /><path
         style="fill:none;stroke:#000000;stroke-width:6.44962;stroke-linecap:round;stroke-linejoin:round;stroke-miterlimit:4;stroke-dasharray:none;stroke-opacity:1"
         d="m 405.77431,10.909917 0.0155,0.654359 0.0622,0.638779 0.0933,0.654359 0.12444,0.638781 0.15556,0.623197 0.20222,0.6232 0.23333,0.607621 0.26445,0.592039 0.29555,0.576458 0.32667,0.56088 0.35777,0.545298 0.38889,0.514141 0.42,0.49856 0.45112,0.4674 0.46666,0.451818 0.49778,0.420661 0.51333,0.389499 0.54445,0.358338 0.56,0.327181 0.57555,0.296019 0.59112,0.264861 0.60666,0.233698 0.62222,0.202541 0.62223,0.1558 0.63777,0.12464 0.65334,0.09348 0.63777,0.06232 0.65334,0.01558 0.65333,-0.01558 0.63778,-0.06232 0.65333,-0.09348 0.63778,-0.12464 0.62222,-0.1558 0.62223,-0.202541 0.60666,-0.233698 0.59111,-0.264861 0.57556,-0.296019 0.56,-0.327181 0.54444,-0.358338 0.51334,-0.389499 0.49777,-0.420661 0.46667,-0.451818 0.45111,-0.4674 0.42,-0.49856 0.38889,-0.514141 0.35778,-0.545298 0.32667,-0.56088 0.29555,-0.576458 0.26444,-0.592039 0.23334,-0.607621 0.20222,-0.6232 0.15555,-0.623197 0.12445,-0.638781 0.0933,-0.654359 0.0622,-0.638779 0.0156,-0.654359"
         id="path4-7" /><path
         style="fill:none;stroke:#000000;stroke-width:6.44962;stroke-linecap:round;stroke-linejoin:round;stroke-miterlimit:4;stroke-dasharray:none;stroke-opacity:1"
         d="M 428.92097,10.909917 V -23.895766"
         id="path5-0" /><path
         style="fill:none;stroke:#000000;stroke-width:6.44962;stroke-linecap:round;stroke-linejoin:round;stroke-miterlimit:4;stroke-dasharray:none;stroke-opacity:1"
         d="M 660.72985,22.314464 V -0.89971133"
         id="path6-35" /><path
         style="fill:none;stroke:#000000;stroke-width:6.44962;stroke-linecap:round;stroke-linejoin:round;stroke-miterlimit:4;stroke-dasharray:none;stroke-opacity:1"
         d="m 660.72985,-0.89971133 -0.0156,-0.93479897 -0.0622,-0.934799 -0.0933,-0.919219 -0.12444,-0.934799 -0.17113,-0.919219 -0.20222,-0.903639 -0.24887,-0.903639 -0.28001,-0.903639 -0.31112,-0.872479 -0.34221,-0.872479 -0.38889,-0.8413187 -0.40444,-0.841319 -0.45111,-0.825739 -0.48223,-0.794579 -0.51332,-0.779 -0.54446,-0.763419 -0.57555,-0.732259 -0.60666,-0.7011 -0.63778,-0.685519 -0.65334,-0.669939 -0.68445,-0.638779 -0.71556,-0.59204 -0.7311,-0.576459 -0.76224,-0.545299 -0.77777,-0.51414 -0.79332,-0.49856 -0.80889,-0.436239 -0.84,-0.42066 -0.85555,-0.389499 -0.85556,-0.34276 -0.88667,-0.311599 -0.88667,-0.28044 -0.90223,-0.24928 -0.9022,-0.20254 -0.91779,-0.171379 -0.93334,-0.12464 -0.91777,-0.09348 -0.93334,-0.06232 -0.93332,-0.01558 -0.93334,0.01558 -0.93335,0.06232 -0.91776,0.09348 -0.93334,0.12464 -0.91779,0.171379 -0.9022,0.20254 -0.90223,0.24928 -0.88667,0.28044 -0.88667,0.311599 -0.85556,0.34276 -0.85555,0.389499 -0.84,0.42066 -0.80889,0.436239 -0.79332,0.49856 -0.77777,0.51414 -0.76224,0.545299 -0.7311,0.576459 -0.71556,0.59204 -0.68446,0.638779 -0.65333,0.669939 -0.63778,0.685519 -0.60666,0.7011 -0.57555,0.732259 -0.54443,0.763419 -0.51335,0.779 -0.48223,0.810159 -0.45111,0.810159 -0.40444,0.841319 -0.38889,0.8413187 -0.34221,0.872479 -0.31112,0.872479 -0.27999,0.903639 -0.24889,0.903639 -0.20222,0.903639 -0.17111,0.919219 -0.12446,0.934799 -0.0933,0.919219 -0.0622,0.934799 -0.0155,0.93479897"
         id="path7-13" /><path
         style="fill:none;stroke:#000000;stroke-width:6.44962;stroke-linecap:round;stroke-linejoin:round;stroke-miterlimit:4;stroke-dasharray:none;stroke-opacity:1"
         d="M 614.42097,-0.89971133 V 22.314464"
         id="path8-93" /><path
         style="fill:none;stroke:#000000;stroke-width:6.44962;stroke-linecap:round;stroke-linejoin:round;stroke-miterlimit:4;stroke-dasharray:none;stroke-opacity:1"
         d="M 440.74319,22.517005 V -12.288678"
         id="path9-7" /><path
         style="fill:none;stroke:#000000;stroke-width:6.44962;stroke-linecap:round;stroke-linejoin:round;stroke-miterlimit:4;stroke-dasharray:none;stroke-opacity:1"
         d="m 463.88986,-12.288678 -0.0156,-0.65436 -0.0622,-0.638779 -0.0933,-0.65436 -0.12445,-0.638779 -0.15555,-0.623199 -0.20223,-0.6232 -0.23333,-0.607619 -0.26444,-0.592039 -0.29556,-0.57646 -0.32667,-0.560879 -0.35777,-0.5453 -0.38889,-0.514139 -0.42,-0.498559 -0.45112,-0.4674 -0.46667,-0.45182 -0.49778,-0.420659 -0.51333,-0.3895 -0.54445,-0.358339 -0.55999,-0.32718 -0.57556,-0.29602 -0.59111,-0.264859 -0.60667,-0.2337 -0.62222,-0.20254 -0.62222,-0.1558 -0.63778,-0.12464 -0.65334,-0.09348 -0.63777,-0.06232 -0.65334,-0.01558 -0.65333,0.01558 -0.63778,0.06232 -0.65333,0.09348 -0.63778,0.12464 -0.62222,0.1558 -0.62222,0.20254 -0.60666,0.2337 -0.59112,0.264859 -0.57555,0.29602 -0.56,0.32718 -0.54445,0.358339 -0.51333,0.3895 -0.49778,0.420659 -0.46666,0.45182 -0.45112,0.4674 -0.42,0.498559 -0.38889,0.514139 -0.35777,0.5453 -0.32667,0.560879 -0.29555,0.57646 -0.26445,0.592039 -0.23333,0.607619 -0.20222,0.6232 -0.15556,0.623199 -0.12444,0.638779 -0.0933,0.65436 -0.0622,0.638779 -0.0156,0.65436"
         id="path10-2" /><path
         style="fill:none;stroke:#000000;stroke-width:6.44962;stroke-linecap:round;stroke-linejoin:round;stroke-miterlimit:4;stroke-dasharray:none;stroke-opacity:1"
         d="M 463.88986,-12.288678 V 10.909917"
         id="path11-1" /><path
         style="fill:none;stroke:#000000;stroke-width:6.44962;stroke-linecap:round;stroke-linejoin:round;stroke-miterlimit:4;stroke-dasharray:none;stroke-opacity:1"
         d="m 463.90541,10.909917 0.0156,0.654359 0.0622,0.638779 0.0933,0.654359 0.12444,0.638781 0.15555,0.623197 0.20223,0.6232 0.23333,0.607621 0.26444,0.592039 0.29556,0.576458 0.32667,0.56088 0.35777,0.545298 0.38889,0.514141 0.42,0.49856 0.45111,0.4674 0.46667,0.451818 0.49778,0.420661 0.51333,0.389499 0.54445,0.358338 0.56,0.327181 0.57555,0.296019 0.59111,0.264861 0.60667,0.233698 0.62222,0.202541 0.62222,0.1558 0.63778,0.12464 0.65334,0.09348 0.63777,0.06232 0.65334,0.01558 0.65333,-0.01558 0.63778,-0.06232 0.65333,-0.09348 0.63778,-0.12464 0.62222,-0.1558 0.62222,-0.202541 0.60667,-0.233698 0.59111,-0.264861 0.57556,-0.296019 0.56,-0.327181 0.54444,-0.358338 0.51333,-0.389499 0.49778,-0.420661 0.46667,-0.451818 0.45111,-0.4674 0.42,-0.49856 0.38889,-0.514141 0.35778,-0.545298 0.32666,-0.56088 0.29556,-0.576458 0.26444,-0.592039 0.23334,-0.607621 0.20222,-0.6232 0.15555,-0.623197 0.12445,-0.638781 0.0933,-0.654359 0.0622,-0.638779 0.0156,-0.654359"
         id="path12-41" /><path
         style="fill:none;stroke:#000000;stroke-width:6.44962;stroke-linecap:round;stroke-linejoin:round;stroke-miterlimit:4;stroke-dasharray:none;stroke-opacity:1"
         d="M 487.05208,10.909917 V -23.895766"
         id="path13-05" /><path
         style="fill:none;stroke:#000000;stroke-width:6.44962;stroke-linecap:round;stroke-linejoin:round;stroke-miterlimit:4;stroke-dasharray:none;stroke-opacity:1"
         d="m 544.9343,-0.69717133 -0.0155,-0.93479897 -0.0622,-0.934799 -0.0933,-0.919219 -0.12444,-0.934799 -0.17111,-0.919219 -0.20223,-0.903639 -0.24889,-0.903639 -0.28,-0.903639 -0.31111,-0.872479 -0.34222,-0.872479 -0.38889,-0.8413187 -0.40444,-0.841319 -0.45111,-0.825739 -0.48222,-0.79458 -0.51334,-0.778999 -0.54455,-0.763419 -0.57556,-0.732259 -0.60667,-0.7011 -0.63777,-0.685519 -0.65334,-0.669939 -0.68444,-0.63878 -0.71556,-0.592039 -0.73111,-0.576459 -0.76222,-0.5453 -0.77778,-0.514139 -0.79333,-0.49856 -0.80889,-0.436239 -0.84,-0.42066 -0.85555,-0.389499 -0.85556,-0.34276 -0.88667,-0.3116 -0.88666,-0.280439 -0.90223,-0.24928 -0.90222,-0.20254 -0.91778,-0.17138 -0.93333,-0.12464 -0.91778,-0.09348 -0.93333,-0.06232 -0.93333,-0.01558 -0.93334,0.01558 -0.93333,0.06232 -0.91778,0.09348 -0.93333,0.12464 -0.91778,0.17138 -0.90222,0.20254 -0.90223,0.24928 -0.88666,0.280439 -0.88667,0.3116 -0.85555,0.34276 -0.85556,0.389499 -0.84,0.42066 -0.80889,0.436239 -0.79333,0.49856 -0.77778,0.514139 -0.76222,0.5453 -0.73111,0.576459 -0.71556,0.592039 -0.68444,0.63878 -0.65333,0.669939 -0.63778,0.685519 -0.60667,0.7011 -0.57555,0.732259 -0.54445,0.763419 -0.51333,0.778999 -0.48223,0.81016 -0.45111,0.810159 -0.40444,0.841319 -0.38889,0.8413187 -0.34222,0.872479 -0.31111,0.872479 -0.28,0.903639 -0.24889,0.903639 -0.20222,0.903639 -0.17111,0.919219 -0.12445,0.934799 -0.0933,0.919219 -0.0622,0.934799 -0.0156,0.93479897 0.0156,0.934799 0.0622,0.93479903 0.0933,0.919219 0.12445,0.934799 0.17111,0.919218 0.20222,0.903639 0.24889,0.90364 0.28,0.903639 0.31111,0.872479 0.34222,0.87248 0.38889,0.841319 0.40444,0.8413203 0.45111,0.810156 0.48223,0.81016 0.51333,0.778999 0.54445,0.763421 0.57555,0.732258 0.60667,0.701099 0.63778,0.685519 0.65333,0.669941 0.68444,0.638778 0.71556,0.59204 0.73111,0.576458 0.76222,0.545301 0.77778,0.514138 0.79333,0.49856 0.80889,0.43624 0.84,0.420658 0.85556,0.389501 0.85555,0.34276 0.88667,0.3116 0.88666,0.28044 0.90223,0.24928 0.90222,0.202538 0.91778,0.171381 0.93333,0.12464 0.91778,0.09348 0.93333,0.06232 0.93334,0.01558 0.93333,-0.01558 0.93333,-0.06232 0.91778,-0.09348 0.93333,-0.12464 0.91778,-0.171381 0.90222,-0.202538 0.90223,-0.24928 0.88666,-0.28044 0.88667,-0.3116 0.85556,-0.34276 0.85555,-0.389501 0.84,-0.420658 0.80889,-0.43624 0.79333,-0.49856 0.77778,-0.514138 0.76222,-0.545301 0.73111,-0.576458 0.71556,-0.59204 0.68444,-0.638778 0.65334,-0.669941 0.63777,-0.685519 0.60667,-0.701099 0.57556,-0.732258 0.54444,-0.763421 0.51334,-0.778999 0.48222,-0.81016 0.45111,-0.810156 0.40444,-0.8413203 0.38889,-0.841319 0.34222,-0.87248 0.31111,-0.872479 0.28,-0.903639 0.24889,-0.90364 0.20223,-0.903639 0.17111,-0.919218 0.12444,-0.934799 0.0933,-0.919219 0.0622,-0.93479903 z"
         id="path14-0" /><path
         style="fill:none;stroke:#000000;stroke-width:6.44962;stroke-linecap:round;stroke-linejoin:round;stroke-miterlimit:4;stroke-dasharray:none;stroke-opacity:1"
         d="m 556.52319,-24.113886 15.96,41.473916"
         id="path15-93" /><path
         style="fill:none;stroke:#000000;stroke-width:6.44962;stroke-linecap:round;stroke-linejoin:round;stroke-miterlimit:4;stroke-dasharray:none;stroke-opacity:1"
         d="m 572.48319,17.344449 0.20222,0.482981 0.23334,0.467399 0.26444,0.43624 0.29556,0.420658 0.31111,0.40508 0.35777,0.389501 0.35778,0.358339 0.40445,0.327178 0.40444,0.3116 0.43556,0.28044 0.45111,0.249279 0.46666,0.21812 0.48223,0.18696 0.49778,0.140221 0.49777,0.12464 0.51334,0.09348 0.51333,0.04674 0.51333,0.01558 0.51334,-0.01558 0.51333,-0.04674 0.51333,-0.09348 0.49778,-0.12464 0.49778,-0.140221 0.48222,-0.18696 0.46667,-0.21812 0.45111,-0.249279 0.43555,-0.28044 0.40445,-0.3116 0.40444,-0.327178 0.35778,-0.358339 0.35778,-0.389501 0.31111,-0.40508 0.29556,-0.420658 0.26444,-0.43624 0.23333,-0.467399 0.20223,-0.482981"
         id="path16-895" /><path
         style="fill:none;stroke:#000000;stroke-width:6.44962;stroke-linecap:round;stroke-linejoin:round;stroke-miterlimit:4;stroke-dasharray:none;stroke-opacity:1"
         d="m 586.88764,17.36003 15.96,-41.473916"
         id="path17-86" /><path
         style="fill:none;stroke:#000000;stroke-width:6.44962;stroke-linecap:round;stroke-linejoin:round;stroke-miterlimit:4;stroke-dasharray:none;stroke-opacity:1"
         d="m 359.44986,-12.288678 -0.0156,-0.65436 -0.0622,-0.638779 -0.0933,-0.65436 -0.12444,-0.638779 -0.15556,-0.623199 -0.20222,-0.6232 -0.23334,-0.607619 -0.26444,-0.592039 -0.29556,-0.57646 -0.32666,-0.560879 -0.35778,-0.5453 -0.38889,-0.514139 -0.42,-0.498559 -0.45111,-0.4674 -0.46667,-0.45182 -0.49777,-0.420659 -0.51334,-0.3895 -0.54444,-0.358339 -0.56,-0.32718 -0.57556,-0.29602 -0.59111,-0.264859 -0.60667,-0.2337 -0.62222,-0.20254 -0.62222,-0.1558 -0.63778,-0.12464 -0.65333,-0.09348 -0.63778,-0.06232 -0.65333,-0.01558"
         id="path18-7" /><path
         style="fill:none;stroke:#000000;stroke-width:6.44962;stroke-linecap:round;stroke-linejoin:round;stroke-miterlimit:4;stroke-dasharray:none;stroke-opacity:1"
         d="M 359.44986,-12.288678 V 10.909917"
         id="path19-2" /><path
         style="fill:none;stroke:#000000;stroke-width:6.44962;stroke-linecap:round;stroke-linejoin:round;stroke-miterlimit:4;stroke-dasharray:none;stroke-opacity:1"
         d="m 359.46542,10.909917 0.0156,0.654359 0.0622,0.638779 0.0933,0.654359 0.12444,0.638781 0.15556,0.623197 0.20222,0.6232 0.23333,0.607621 0.26445,0.592039 0.29555,0.576458 0.32667,0.56088 0.35778,0.545298 0.38889,0.514141 0.42,0.49856 0.45111,0.4674 0.46666,0.451818 0.49778,0.420661 0.51333,0.389499 0.54445,0.358338 0.56,0.327181 0.57555,0.296019 0.59112,0.264861 0.60666,0.233698 0.62222,0.202541 0.62223,0.1558 0.63777,0.12464 0.65334,0.09348 0.63778,0.06232 0.65333,0.01558"
         id="path20-8" /></g></g></svg>
